<?xml version="1.0" encoding="UTF-8"?>
<svg xmlns="http://www.w3.org/2000/svg" xmlns:xlink="http://www.w3.org/1999/xlink" width="208px" height="130px" viewBox="0 0 104 65" version="1.1">
<defs>
<clipPath id="clip1">
  <path d="M 10.4375 11.1875 L 93.4375 11.1875 L 93.4375 53.863281 L 10.4375 53.863281 Z M 10.4375 11.1875 "/>
</clipPath>
<clipPath id="clip2">
  <path d="M 0.0625 0.0234375 L 103.8125 0.0234375 L 103.8125 65 L 0.0625 65 Z M 0.0625 0.0234375 "/>
</clipPath>
</defs>
<g id="surface1">
<g clip-path="url(#clip1)" clip-rule="nonzero">
<path style=" stroke:none;fill-rule:nonzero;fill:rgb(0%,0%,0%);fill-opacity:1;" d="M 10.4375 53.863281 L 10.4375 11.1875 L 26.460938 11.1875 C 29.265625 11.1875 31.828125 11.640625 34.140625 12.535156 C 36.460938 13.429688 38.429688 14.765625 40.054688 16.53125 C 41.679688 18.3125 42.9375 20.53125 43.832031 23.195312 C 44.726562 25.871094 45.171875 28.980469 45.171875 32.523438 C 45.171875 36.070312 44.726562 39.179688 43.832031 41.84375 C 42.9375 44.515625 41.679688 46.738281 40.054688 48.507812 C 38.429688 50.285156 36.460938 51.621094 34.140625 52.515625 C 31.828125 53.414062 29.265625 53.863281 26.460938 53.863281 Z M 19.699219 45.609375 L 26.460938 45.609375 C 29.226562 45.609375 31.398438 44.835938 32.984375 43.289062 C 34.570312 41.738281 35.359375 39.25 35.359375 35.828125 L 35.359375 29.226562 C 35.359375 25.800781 34.570312 23.3125 32.984375 21.765625 C 31.398438 20.21875 29.226562 19.445312 26.460938 19.445312 L 19.699219 19.445312 Z M 84.722656 53.863281 L 84.722656 25.863281 L 84.539062 25.863281 L 81.429688 32.097656 L 73.144531 47.199219 L 65.039062 32.160156 L 61.808594 25.433594 L 61.625 25.433594 L 61.625 53.863281 L 52.914062 53.863281 L 52.914062 11.1875 L 62.722656 11.1875 L 73.144531 31.179688 L 73.265625 31.179688 L 83.5625 11.1875 L 93.4375 11.1875 L 93.4375 53.863281 Z M 84.722656 53.863281 "/>
</g>
<g clip-path="url(#clip2)" clip-rule="nonzero">
<path style=" stroke:none;fill-rule:nonzero;fill:rgb(0%,0%,0%);fill-opacity:1;" d="M 0.0625 65.054688 L 0.0625 0 L 103.8125 0 L 103.8125 65.054688 Z M 99.976562 61.203125 L 99.976562 3.847656 L 3.898438 3.847656 L 3.898438 61.203125 Z M 99.976562 61.203125 "/>
</g>
</g>
</svg>
